<mxfile host="65bd71144e">
    <diagram id="o71ToMmGcE9urnErJe_Q" name="Page-1">
        <mxGraphModel dx="2295" dy="1938" grid="1" gridSize="10" guides="1" tooltips="1" connect="1" arrows="1" fold="1" page="1" pageScale="1" pageWidth="850" pageHeight="1100" background="none" math="0" shadow="0">
            <root>
                <mxCell id="0"/>
                <mxCell id="1" parent="0"/>
                <mxCell id="60" style="rounded=0;orthogonalLoop=1;jettySize=auto;html=1;exitX=1;exitY=0.3333333333333333;exitDx=0;exitDy=0;exitPerimeter=0;entryX=0;entryY=0.5;entryDx=0;entryDy=0;endArrow=none;endFill=0;endSize=6;" parent="1" source="2" target="26" edge="1">
                    <mxGeometry relative="1" as="geometry"/>
                </mxCell>
                <mxCell id="61" style="edgeStyle=none;rounded=0;orthogonalLoop=1;jettySize=auto;html=1;exitX=1;exitY=0.3333333333333333;exitDx=0;exitDy=0;exitPerimeter=0;entryX=0;entryY=0.5;entryDx=0;entryDy=0;endArrow=none;endFill=0;endSize=6;" parent="1" source="2" target="58" edge="1">
                    <mxGeometry relative="1" as="geometry"/>
                </mxCell>
                <mxCell id="80" style="edgeStyle=none;rounded=0;orthogonalLoop=1;jettySize=auto;html=1;exitX=1;exitY=0.3333333333333333;exitDx=0;exitDy=0;exitPerimeter=0;entryX=0;entryY=0.5;entryDx=0;entryDy=0;endArrow=none;endFill=0;endSize=6;" parent="1" source="2" target="VlSE2aysGlBR9VW1DoNy-73" edge="1">
                    <mxGeometry relative="1" as="geometry"/>
                </mxCell>
                <mxCell id="2" value="Gérant / Employés" style="shape=umlActor;verticalLabelPosition=bottom;verticalAlign=top;html=1;outlineConnect=0;fontFamily=Helvetica;labelBackgroundColor=none;labelBorderColor=none;" parent="1" vertex="1">
                    <mxGeometry x="-760" y="310" width="30" height="60" as="geometry"/>
                </mxCell>
                <mxCell id="19" value="Ajouter articles&lt;br&gt;aux stocks" style="shape=ellipse;html=1;strokeWidth=1;fontStyle=1;whiteSpace=wrap;align=center;perimeter=ellipsePerimeter;labelBackgroundColor=none;fontFamily=Helvetica;fontColor=#f0f0f0;" parent="1" vertex="1">
                    <mxGeometry x="-150" y="390" width="120" height="60" as="geometry"/>
                </mxCell>
                <mxCell id="20" value="Créer un compte client" style="shape=ellipse;html=1;strokeWidth=1;fontStyle=1;whiteSpace=wrap;align=center;perimeter=ellipsePerimeter;labelBackgroundColor=none;fontFamily=Helvetica;fontColor=#f0f0f0;" parent="1" vertex="1">
                    <mxGeometry x="-560" y="790" width="120" height="60" as="geometry"/>
                </mxCell>
                <mxCell id="21" value="Retirer articles &lt;br&gt;des stocks" style="shape=ellipse;html=1;strokeWidth=1;fontStyle=1;whiteSpace=wrap;align=center;perimeter=ellipsePerimeter;labelBackgroundColor=none;fontFamily=Helvetica;fontColor=#f0f0f0;" parent="1" vertex="1">
                    <mxGeometry x="-150" y="530" width="120" height="60" as="geometry"/>
                </mxCell>
                <mxCell id="63" style="edgeStyle=none;rounded=0;orthogonalLoop=1;jettySize=auto;html=1;exitX=0;exitY=0.5;exitDx=0;exitDy=0;entryX=1;entryY=0.3333333333333333;entryDx=0;entryDy=0;entryPerimeter=0;endArrow=none;endFill=0;endSize=6;exitPerimeter=0;" parent="1" source="94" target="2" edge="1">
                    <mxGeometry relative="1" as="geometry">
                        <mxPoint x="-560" y="400" as="sourcePoint"/>
                    </mxGeometry>
                </mxCell>
                <mxCell id="64" style="edgeStyle=none;rounded=0;orthogonalLoop=1;jettySize=auto;html=1;exitX=0;exitY=0.5;exitDx=0;exitDy=0;endArrow=none;endFill=0;endSize=6;entryX=1;entryY=0.3333333333333333;entryDx=0;entryDy=0;entryPerimeter=0;exitPerimeter=0;" parent="1" source="104" target="2" edge="1">
                    <mxGeometry relative="1" as="geometry">
                        <mxPoint x="-730" y="160" as="targetPoint"/>
                        <mxPoint x="-560" y="280" as="sourcePoint"/>
                    </mxGeometry>
                </mxCell>
                <mxCell id="26" value="Ajouter fournisseur" style="shape=ellipse;html=1;strokeWidth=1;fontStyle=1;whiteSpace=wrap;align=center;perimeter=ellipsePerimeter;labelBackgroundColor=none;fontFamily=Helvetica;" parent="1" vertex="1">
                    <mxGeometry x="-560" y="90" width="120" height="60" as="geometry"/>
                </mxCell>
                <mxCell id="34" value="Modifier les stocks" style="shape=ellipse;html=1;strokeWidth=1;fontStyle=1;whiteSpace=wrap;align=center;perimeter=ellipsePerimeter;labelBackgroundColor=none;fontFamily=Helvetica;fontColor=#f0f0f0;" parent="1" vertex="1">
                    <mxGeometry x="-350" y="460" width="120" height="60" as="geometry"/>
                </mxCell>
                <mxCell id="40" value="Renseigner infos client" style="shape=ellipse;html=1;strokeWidth=1;fontStyle=1;whiteSpace=wrap;align=center;perimeter=ellipsePerimeter;labelBackgroundColor=none;fontFamily=Helvetica;fontColor=#f0f0f0;" parent="1" vertex="1">
                    <mxGeometry x="-350" y="790" width="120" height="60" as="geometry"/>
                </mxCell>
                <mxCell id="56" value="Renseigner infos fournisseur" style="shape=ellipse;html=1;strokeWidth=1;fontStyle=1;whiteSpace=wrap;align=center;perimeter=ellipsePerimeter;labelBackgroundColor=none;fontFamily=Helvetica;fontColor=#f0f0f0;" parent="1" vertex="1">
                    <mxGeometry x="-350" y="20" width="120" height="60" as="geometry"/>
                </mxCell>
                <mxCell id="66" style="edgeStyle=none;rounded=0;orthogonalLoop=1;jettySize=auto;html=1;exitX=1;exitY=0.3333333333333333;exitDx=0;exitDy=0;exitPerimeter=0;entryX=0;entryY=0.5;entryDx=0;entryDy=0;endArrow=none;endFill=0;endSize=6;" parent="1" source="VlSE2aysGlBR9VW1DoNy-65" target="20" edge="1">
                    <mxGeometry relative="1" as="geometry"/>
                </mxCell>
                <mxCell id="67" style="edgeStyle=none;rounded=0;orthogonalLoop=1;jettySize=auto;html=1;exitX=1;exitY=0.3333333333333333;exitDx=0;exitDy=0;exitPerimeter=0;entryX=0;entryY=0.5;entryDx=0;entryDy=0;endArrow=none;endFill=0;endSize=6;" parent="1" source="VlSE2aysGlBR9VW1DoNy-65" target="VlSE2aysGlBR9VW1DoNy-73" edge="1">
                    <mxGeometry relative="1" as="geometry"/>
                </mxCell>
                <mxCell id="68" style="edgeStyle=none;rounded=0;orthogonalLoop=1;jettySize=auto;html=1;exitX=1;exitY=0.3333333333333333;exitDx=0;exitDy=0;exitPerimeter=0;entryX=0;entryY=0.5;entryDx=0;entryDy=0;endArrow=none;endFill=0;endSize=6;" parent="1" source="VlSE2aysGlBR9VW1DoNy-65" target="VlSE2aysGlBR9VW1DoNy-69" edge="1">
                    <mxGeometry relative="1" as="geometry"/>
                </mxCell>
                <mxCell id="VlSE2aysGlBR9VW1DoNy-65" value="Client" style="shape=umlActor;html=1;verticalLabelPosition=bottom;verticalAlign=top;align=center;" parent="1" vertex="1">
                    <mxGeometry x="-760" y="620" width="30" height="60" as="geometry"/>
                </mxCell>
                <mxCell id="VlSE2aysGlBR9VW1DoNy-66" value="Fournisseurs" style="shape=umlActor;html=1;verticalLabelPosition=bottom;verticalAlign=top;align=center;" parent="1" vertex="1">
                    <mxGeometry x="485" y="370" width="30" height="60" as="geometry"/>
                </mxCell>
                <mxCell id="VlSE2aysGlBR9VW1DoNy-69" value="Passer une commande client" style="shape=ellipse;html=1;strokeWidth=1;fontStyle=1;whiteSpace=wrap;align=center;perimeter=ellipsePerimeter;labelBackgroundColor=none;fontFamily=Helvetica;fontColor=#f0f0f0;" parent="1" vertex="1">
                    <mxGeometry x="-560" y="680" width="120" height="60" as="geometry"/>
                </mxCell>
                <mxCell id="VlSE2aysGlBR9VW1DoNy-72" value="Application de gestion des stocks et des commandes clients" style="shape=rect;html=1;verticalAlign=top;fontStyle=1;whiteSpace=wrap;align=center;fillColor=none;strokeWidth=2;" parent="1" vertex="1">
                    <mxGeometry x="-690" y="-140" width="1000" height="1150" as="geometry"/>
                </mxCell>
                <mxCell id="VlSE2aysGlBR9VW1DoNy-73" value="Se connecter" style="shape=ellipse;html=1;strokeWidth=1;fontStyle=1;whiteSpace=wrap;align=center;perimeter=ellipsePerimeter;labelBackgroundColor=none;fontFamily=Helvetica;fontColor=#f0f0f0;" parent="1" vertex="1">
                    <mxGeometry x="-560" y="570" width="120" height="60" as="geometry"/>
                </mxCell>
                <mxCell id="62" style="edgeStyle=none;rounded=0;orthogonalLoop=1;jettySize=auto;html=1;exitX=0;exitY=0.5;exitDx=0;exitDy=0;entryX=1;entryY=0.3333333333333333;entryDx=0;entryDy=0;entryPerimeter=0;endArrow=none;endFill=0;endSize=6;" parent="1" source="VlSE2aysGlBR9VW1DoNy-76" target="2" edge="1">
                    <mxGeometry relative="1" as="geometry"/>
                </mxCell>
                <mxCell id="VlSE2aysGlBR9VW1DoNy-76" value="&lt;span&gt;Consulter&amp;nbsp;&lt;/span&gt;&lt;span&gt;les stocks&lt;/span&gt;" style="shape=ellipse;html=1;strokeWidth=1;fontStyle=1;whiteSpace=wrap;align=center;perimeter=ellipsePerimeter;labelBackgroundColor=none;fontFamily=Helvetica;fontColor=#f0f0f0;" parent="1" vertex="1">
                    <mxGeometry x="-560" y="460" width="120" height="60" as="geometry"/>
                </mxCell>
                <mxCell id="VlSE2aysGlBR9VW1DoNy-81" value="Consulter le catalogue d'articles" style="shape=ellipse;html=1;strokeWidth=1;fontStyle=1;whiteSpace=wrap;align=center;perimeter=ellipsePerimeter;labelBackgroundColor=none;fontFamily=Helvetica;fontColor=#f0f0f0;" parent="1" vertex="1">
                    <mxGeometry x="-560" y="900" width="120" height="60" as="geometry"/>
                </mxCell>
                <mxCell id="58" value="Passer une commande fournisseur" style="shape=ellipse;html=1;strokeWidth=1;fontStyle=1;whiteSpace=wrap;align=center;perimeter=ellipsePerimeter;labelBackgroundColor=none;fontFamily=Helvetica;fontColor=#f0f0f0;" parent="1" vertex="1">
                    <mxGeometry x="-560" y="-20" width="120" height="60" as="geometry"/>
                </mxCell>
                <mxCell id="71" value="Selectionner les articles et quantités" style="shape=ellipse;html=1;strokeWidth=1;fontStyle=1;whiteSpace=wrap;align=center;perimeter=ellipsePerimeter;labelBackgroundColor=none;fontFamily=Helvetica;fontColor=#f0f0f0;" parent="1" vertex="1">
                    <mxGeometry x="50" y="460" width="120" height="60" as="geometry"/>
                </mxCell>
                <mxCell id="75" value="&amp;lt;&amp;lt;include&amp;gt;&amp;gt;" style="edgeStyle=none;html=1;endArrow=open;verticalAlign=bottom;dashed=1;labelBackgroundColor=none;endSize=6;exitX=0.5;exitY=0;exitDx=0;exitDy=0;entryX=0.5;entryY=1;entryDx=0;entryDy=0;" parent="1" source="VlSE2aysGlBR9VW1DoNy-69" target="VlSE2aysGlBR9VW1DoNy-73" edge="1">
                    <mxGeometry x="-0.5" width="160" relative="1" as="geometry">
                        <mxPoint x="-590" y="710" as="sourcePoint"/>
                        <mxPoint x="-430" y="710" as="targetPoint"/>
                        <mxPoint as="offset"/>
                    </mxGeometry>
                </mxCell>
                <mxCell id="81" style="edgeStyle=none;rounded=0;orthogonalLoop=1;jettySize=auto;html=1;exitX=1;exitY=0.3333333333333333;exitDx=0;exitDy=0;exitPerimeter=0;entryX=0;entryY=0.5;entryDx=0;entryDy=0;endArrow=none;endFill=0;endSize=6;" parent="1" source="77" target="VlSE2aysGlBR9VW1DoNy-81" edge="1">
                    <mxGeometry relative="1" as="geometry"/>
                </mxCell>
                <mxCell id="77" value="Internaute" style="shape=umlActor;html=1;verticalLabelPosition=bottom;verticalAlign=top;align=center;" parent="1" vertex="1">
                    <mxGeometry x="-760" y="800" width="30" height="60" as="geometry"/>
                </mxCell>
                <mxCell id="83" value="" style="edgeStyle=none;html=1;endArrow=block;endFill=0;endSize=12;verticalAlign=bottom;entryX=0.5;entryY=0;entryDx=0;entryDy=0;entryPerimeter=0;" parent="1" source="VlSE2aysGlBR9VW1DoNy-65" target="77" edge="1">
                    <mxGeometry width="160" relative="1" as="geometry">
                        <mxPoint x="-750" y="710" as="sourcePoint"/>
                        <mxPoint x="-50" y="600" as="targetPoint"/>
                    </mxGeometry>
                </mxCell>
                <mxCell id="86" value="&amp;lt;&amp;lt;extend&amp;gt;&amp;gt;" style="edgeStyle=none;html=1;startArrow=open;endArrow=none;startSize=12;verticalAlign=bottom;dashed=1;labelBackgroundColor=none;entryX=0;entryY=0.5;entryDx=0;entryDy=0;exitX=1;exitY=0.5;exitDx=0;exitDy=0;" parent="1" source="VlSE2aysGlBR9VW1DoNy-76" target="34" edge="1">
                    <mxGeometry x="0.1111" width="160" relative="1" as="geometry">
                        <mxPoint x="-210" y="400" as="sourcePoint"/>
                        <mxPoint x="-50" y="400" as="targetPoint"/>
                        <mxPoint as="offset"/>
                    </mxGeometry>
                </mxCell>
                <mxCell id="87" value="" style="edgeStyle=none;html=1;endArrow=block;endFill=0;endSize=12;verticalAlign=bottom;exitX=0.011;exitY=0.653;exitDx=0;exitDy=0;exitPerimeter=0;entryX=1;entryY=0.5;entryDx=0;entryDy=0;" parent="1" source="19" target="34" edge="1">
                    <mxGeometry width="160" relative="1" as="geometry">
                        <mxPoint x="-210" y="400" as="sourcePoint"/>
                        <mxPoint x="-50" y="400" as="targetPoint"/>
                    </mxGeometry>
                </mxCell>
                <mxCell id="88" value="" style="edgeStyle=none;html=1;endArrow=block;endFill=0;endSize=12;verticalAlign=bottom;exitX=0;exitY=0.5;exitDx=0;exitDy=0;entryX=1;entryY=0.5;entryDx=0;entryDy=0;" parent="1" source="21" target="34" edge="1">
                    <mxGeometry width="160" relative="1" as="geometry">
                        <mxPoint x="-138.67999999999984" y="229.18000000000006" as="sourcePoint"/>
                        <mxPoint x="-230" y="280" as="targetPoint"/>
                    </mxGeometry>
                </mxCell>
                <mxCell id="89" value="&amp;lt;&amp;lt;include&amp;gt;&amp;gt;" style="edgeStyle=none;html=1;endArrow=open;verticalAlign=bottom;dashed=1;labelBackgroundColor=none;endSize=6;exitX=1;exitY=0.5;exitDx=0;exitDy=0;entryX=0;entryY=0.5;entryDx=0;entryDy=0;" parent="1" source="19" target="71" edge="1">
                    <mxGeometry width="160" relative="1" as="geometry">
                        <mxPoint x="-30" y="240" as="sourcePoint"/>
                        <mxPoint x="-50" y="430" as="targetPoint"/>
                    </mxGeometry>
                </mxCell>
                <mxCell id="90" value="&amp;lt;&amp;lt;include&amp;gt;&amp;gt;" style="edgeStyle=none;html=1;endArrow=open;verticalAlign=bottom;dashed=1;labelBackgroundColor=none;endSize=6;exitX=1;exitY=0.5;exitDx=0;exitDy=0;entryX=0;entryY=0.5;entryDx=0;entryDy=0;" parent="1" source="21" target="71" edge="1">
                    <mxGeometry width="160" relative="1" as="geometry">
                        <mxPoint x="-20" y="220" as="sourcePoint"/>
                        <mxPoint x="40" y="290" as="targetPoint"/>
                    </mxGeometry>
                </mxCell>
                <mxCell id="91" value="Condition: {si famille = null}&#10;extension point: Création famille" style="shape=note;size=15;spacingLeft=5;align=left;whiteSpace=wrap;" parent="1" vertex="1">
                    <mxGeometry x="-400" y="290" width="230" height="40" as="geometry"/>
                </mxCell>
                <mxCell id="92" value="&amp;lt;&amp;lt;extend&amp;gt;&amp;gt;" style="align=right;html=1;verticalAlign=bottom;rounded=0;labelBackgroundColor=none;endArrow=open;endSize=12;dashed=1;entryX=0.5;entryY=0;entryDx=0;entryDy=0;exitX=0.5;exitY=1;exitDx=0;exitDy=0;entryPerimeter=0;exitPerimeter=0;" parent="1" source="104" target="94" edge="1">
                    <mxGeometry y="30" relative="1" as="geometry">
                        <mxPoint x="-500" y="430" as="targetPoint"/>
                        <mxPoint x="-500" y="310" as="sourcePoint"/>
                        <mxPoint as="offset"/>
                    </mxGeometry>
                </mxCell>
                <mxCell id="93" value="" style="edgeStyle=none;html=1;endArrow=none;rounded=0;labelBackgroundColor=none;dashed=1;exitX=0;exitY=0.5;endSize=6;exitDx=0;exitDy=0;exitPerimeter=0;" parent="1" source="91" edge="1">
                    <mxGeometry relative="1" as="geometry">
                        <mxPoint x="-500" y="310" as="targetPoint"/>
                    </mxGeometry>
                </mxCell>
                <mxCell id="94" value="&lt;br&gt;extension points&lt;br&gt;Création famille" style="html=1;shape=mxgraph.sysml.useCaseExtPt;whiteSpace=wrap;align=center;" parent="1" vertex="1">
                    <mxGeometry x="-580" y="330" width="160" height="80" as="geometry"/>
                </mxCell>
                <mxCell id="95" value="Créer famille" style="resizable=0;html=1;verticalAlign=middle;align=center;labelBackgroundColor=none;fontStyle=1;" parent="94" connectable="0" vertex="1">
                    <mxGeometry x="80" y="17" as="geometry"/>
                </mxCell>
                <mxCell id="96" value="Associer un ou plusieurs articles" style="shape=ellipse;html=1;strokeWidth=1;fontStyle=1;whiteSpace=wrap;align=center;perimeter=ellipsePerimeter;labelBackgroundColor=none;fontFamily=Helvetica;fontColor=#f0f0f0;" parent="1" vertex="1">
                    <mxGeometry x="-350" y="160" width="120" height="60" as="geometry"/>
                </mxCell>
                <mxCell id="98" value="&amp;lt;&amp;lt;include&amp;gt;&amp;gt;" style="edgeStyle=none;html=1;endArrow=open;verticalAlign=bottom;dashed=1;labelBackgroundColor=none;entryX=0;entryY=0.5;entryDx=0;entryDy=0;exitX=1;exitY=0.5;exitDx=0;exitDy=0;" parent="1" source="26" target="56" edge="1">
                    <mxGeometry width="160" relative="1" as="geometry">
                        <mxPoint x="-240" y="260" as="sourcePoint"/>
                        <mxPoint x="-80" y="260" as="targetPoint"/>
                    </mxGeometry>
                </mxCell>
                <mxCell id="99" value="&amp;lt;&amp;lt;include&amp;gt;&amp;gt;" style="edgeStyle=none;html=1;endArrow=open;verticalAlign=bottom;dashed=1;labelBackgroundColor=none;entryX=0;entryY=0.5;entryDx=0;entryDy=0;exitX=1;exitY=0.5;exitDx=0;exitDy=0;" parent="1" source="26" target="96" edge="1">
                    <mxGeometry width="160" relative="1" as="geometry">
                        <mxPoint x="-430" y="90" as="sourcePoint"/>
                        <mxPoint x="-340" y="20" as="targetPoint"/>
                    </mxGeometry>
                </mxCell>
                <mxCell id="100" value="Condition: {si article = null}&#10;extension point: Création article" style="shape=note;size=15;spacingLeft=5;align=left;whiteSpace=wrap;" parent="1" vertex="1">
                    <mxGeometry x="-340" y="230" width="230" height="40" as="geometry"/>
                </mxCell>
                <mxCell id="101" value="&amp;lt;&amp;lt;extend&amp;gt;&amp;gt;" style="align=right;html=1;verticalAlign=bottom;rounded=0;labelBackgroundColor=none;endArrow=open;endSize=12;dashed=1;exitX=0;exitY=0.5;exitDx=0;exitDy=0;entryX=1;entryY=0.5;entryDx=0;entryDy=0;entryPerimeter=0;" parent="1" source="96" target="104" edge="1">
                    <mxGeometry x="-0.5946" y="24" relative="1" as="geometry">
                        <mxPoint x="-457.57359312880703" y="258.78679656440363" as="targetPoint"/>
                        <mxPoint x="-282.43" y="190.61" as="sourcePoint"/>
                        <mxPoint y="1" as="offset"/>
                    </mxGeometry>
                </mxCell>
                <mxCell id="102" value="" style="edgeStyle=none;html=1;endArrow=none;rounded=0;labelBackgroundColor=none;dashed=1;exitX=0;exitY=0.5;exitDx=0;exitDy=0;exitPerimeter=0;" parent="1" source="100" edge="1">
                    <mxGeometry relative="1" as="geometry">
                        <mxPoint x="-380" y="210" as="targetPoint"/>
                    </mxGeometry>
                </mxCell>
                <mxCell id="103" value="Créer article" style="shape=ellipse;html=1;strokeWidth=1;fontStyle=1;whiteSpace=wrap;align=center;perimeter=ellipsePerimeter;labelBackgroundColor=none;fontFamily=Helvetica;fontColor=#f0f0f0;" parent="1" vertex="1">
                    <mxGeometry x="100" y="190" width="120" height="60" as="geometry"/>
                </mxCell>
                <mxCell id="104" value="&lt;br&gt;extension points&lt;br&gt;Création article" style="html=1;shape=mxgraph.sysml.useCaseExtPt;whiteSpace=wrap;align=center;" parent="1" vertex="1">
                    <mxGeometry x="-580" y="200" width="160" height="80" as="geometry"/>
                </mxCell>
                <mxCell id="105" value="Créer article" style="resizable=0;html=1;verticalAlign=middle;align=center;labelBackgroundColor=none;fontStyle=1;" parent="104" connectable="0" vertex="1">
                    <mxGeometry x="80" y="17" as="geometry"/>
                </mxCell>
            </root>
        </mxGraphModel>
    </diagram>
</mxfile>